<?xml version="1.0" standalone="no"?>
<!DOCTYPE svg PUBLIC "-//W3C//DTD SVG 20010904//EN"
 "http://www.w3.org/TR/2001/REC-SVG-20010904/DTD/svg10.dtd">
<svg version="1.0" xmlns="http://www.w3.org/2000/svg"
 width="400.000000pt" height="149.000000pt" viewBox="0 0 400.000000 149.000000"
 preserveAspectRatio="xMidYMid meet">
<metadata>
Created by potrace 1.15, written by Peter Selinger 2001-2017
</metadata>
<g transform="translate(0.000000,149.000000) scale(0.100000,-0.100000)"
fill="#000000" stroke="none">
<path d="M1708 1229 l-278 -161 0 -321 1 -322 276 -159 c152 -88 281 -159 287
-159 6 0 134 71 284 158 l272 158 0 326 -1 326 -269 155 c-149 85 -276 156
-283 157 -6 2 -137 -69 -289 -158z m137 -345 l85 -106 0 106 0 106 25 0 c24 0
24 -1 27 -107 l3 -107 40 62 c30 46 46 62 63 62 16 0 21 -4 16 -12 -4 -7 -47
-73 -96 -145 -64 -96 -94 -133 -108 -133 -26 0 -25 3 6 50 15 23 23 44 18 52
-4 7 -39 53 -78 103 l-71 89 -3 -102 c-2 -94 -4 -102 -22 -102 -19 0 -20 8
-20 145 0 121 2 145 15 145 8 0 53 -48 100 -106z m372 -192 c72 -174 69 -162
45 -162 -15 0 -27 13 -41 45 l-20 45 -55 0 -55 0 -20 -45 c-14 -32 -26 -45
-40 -45 -12 0 -21 2 -21 5 0 7 99 244 111 268 23 42 43 19 96 -111z"/>
</g>
</svg>
